<?xml version="1.0" encoding="UTF-8"?>
<!DOCTYPE svg PUBLIC "-//W3C//DTD SVG 1.1//EN" "http://www.w3.org/Graphics/SVG/1.1/DTD/svg11.dtd">
<!-- Creator: CorelDRAW -->
<svg xmlns="http://www.w3.org/2000/svg" xml:space="preserve" width="591px" height="591px" version="1.1" style="shape-rendering:geometricPrecision; text-rendering:geometricPrecision; image-rendering:optimizeQuality; fill-rule:evenodd; clip-rule:evenodd"
viewBox="0 0 591 591"
 xmlns:xlink="http://www.w3.org/1999/xlink"
 xmlns:xodm="http://www.corel.com/coreldraw/odm/2003">
 <defs>
  <style type="text/css">
   <![CDATA[
    .fil0 {fill:black}
   ]]>
  </style>
 </defs>
 <g id="Capa_x0020_1">
  <metadata id="CorelCorpID_0Corel-Layer"/>
  <path class="fil0" d="M146.63 0.73l296.29 0c81.05,0 147.36,66.31 147.36,147.35l0 296.29c0,81.04 -66.31,147.35 -147.36,147.35l-296.29 0c-81.04,0 -147.35,-66.31 -147.35,-147.35l0 -296.29c0,-81.04 66.31,-147.35 147.35,-147.35zm130.15 95.79c-5.97,-5.86 -17.04,-33.67 -55.52,-36.06 -29.08,-1.81 -50.71,14.71 -60.43,31.74 -7.13,12.48 -7.8,19.27 -8.76,36.29 -3.81,67.01 -1.34,147.01 16.52,211.08 2.75,9.86 10.01,26.05 10.23,35.1 0.36,15.12 -0.55,31.03 -0.55,46.33 0,30.32 0.79,59.92 2.15,89.82 0.36,7.96 0.8,12.43 5.14,17.13 3.44,3.73 10.5,6.49 17.3,4.31 14.67,-4.73 11.63,-18.71 11.36,-34.45 -0.89,-49.74 -3.77,-130.38 1.72,-178.31 7.4,-64.62 50.29,-139.34 82.76,-192.26 12.68,-20.67 24.34,-45.1 52.17,-33.99 9.53,3.81 18.4,13.21 19.64,26.04 1.06,11 -6.82,27.31 -10.77,35.74 -9.72,20.69 -19.13,42.87 -28.11,64.4 -7.74,18.58 -3.48,12.1 -26.85,18.58 -11.29,3.13 -24.57,7.55 -27.09,19.42 -2.81,13.25 10.17,24.44 23.76,18.92 11.48,-4.67 21.14,-9.21 35.5,-10.44 55.75,-4.79 121.74,40.82 99.33,74.77 -5.85,8.86 -19.57,14.81 -33.06,9.58 -8.31,-3.22 -16.59,-15.02 -25.44,-20.95 -21.54,-14.43 -51.6,-11.16 -69.9,3.36 -41.48,32.89 -26.47,99.81 26.8,109.08 30.05,5.22 52.45,-11.63 62.68,-27.99 6.95,-11.11 7.18,-20.46 19.27,-25.97 18.66,-8.51 66.9,8.27 14.68,71.09 -9,10.83 -25.86,22.68 -39.9,28.67 -5.17,2.21 -11.73,4.02 -16.47,6.64 -15.7,8.7 -10.41,43.65 12.53,38.45 7.25,-1.64 8.93,-6.41 12.75,-10.43 4.31,-4.53 32.16,-13.11 53.87,-37.79 7.12,-8.1 13.71,-15.24 19.52,-25.87 13.14,-24.02 22.64,-42.16 10.65,-70.9 -5.61,-13.45 -13.75,-17.03 -20.31,-25.9 4.37,-11.48 16.02,-23.41 9.79,-50.51 -6.35,-27.62 -38.2,-52.8 -61.68,-64.41 -12.62,-6.25 -26.91,-11.02 -41.18,-13.46 -0.94,-0.16 -2.11,-0.29 -2.96,-0.53l-3.68 -1.63c2.28,-8.92 23.43,-54.5 28.84,-66.92 11.38,-26.13 19.03,-47.26 2.2,-75.67 -18.81,-31.75 -63.62,-44.35 -96.71,-17.98 -12.77,10.17 -17.54,23.33 -21.79,25.88zm101.28 279.11c-0.96,-1.43 -12.19,-11.93 -14.31,-13.81 -31.53,-27.97 -63.99,24.04 -34.07,41.5 15.44,9.01 30.6,5.37 38.73,-8.33 2.3,-3.87 8.85,-15.88 9.65,-19.36zm-187.27 -103.74l15.72 -44.19c8.63,-21.42 28.58,-61.76 40.23,-80.16 5.7,-8.99 4.98,-34.52 -9.62,-46.11 -13.99,-11.11 -34.46,-7.73 -43.79,3.76 -9.11,11.23 -7.64,35.14 -8.23,51.93 -0.17,5.09 0.26,108.22 5.69,114.77z"/>
 </g>
</svg>
