<?xml version="1.0" encoding="UTF-8"?>
<!DOCTYPE svg PUBLIC "-//W3C//DTD SVG 1.1//EN" "http://www.w3.org/Graphics/SVG/1.1/DTD/svg11.dtd">
<!-- Creator: CorelDRAW -->
<svg xmlns="http://www.w3.org/2000/svg" xml:space="preserve" width="591px" height="591px" version="1.1" style="shape-rendering:geometricPrecision; text-rendering:geometricPrecision; image-rendering:optimizeQuality; fill-rule:evenodd; clip-rule:evenodd"
viewBox="0 0 591 591"
 xmlns:xlink="http://www.w3.org/1999/xlink"
 xmlns:xodm="http://www.corel.com/coreldraw/odm/2003">
 <defs>
  <style type="text/css">
   <![CDATA[
    .fil0 {fill:white}
   ]]>
  </style>
 </defs>
 <g id="Capa_x0020_1">
  <metadata id="CorelCorpID_0Corel-Layer"/>
  <path class="fil0" d="M334.26 217.08c14.77,-3.36 22.98,7.26 22.96,20.89l-0.01 87.67c0,6.58 0.95,14.62 -1.58,20.32 -6.04,13.64 -22.67,12.78 -30.05,6.2 -4.2,-3.75 -5.05,-9.65 -5.04,-17.03l0.01 -87.66c0,-16.1 -2.2,-26.77 13.71,-30.39zm-61.39 -59.18c9.26,-2.25 17.05,3.11 20.35,8.92 3.55,6.28 2.29,18.61 2.29,26.6 0,16.33 0.59,140.86 -0.19,147.24 -0.93,7.65 -6.74,13.86 -13.52,15.51 -10.1,2.47 -17.54,-3.08 -20.82,-8.81 -3.41,-5.95 -2.18,-19.07 -2.18,-26.84l0 -118.34c0,-18.98 -4.35,-39.79 14.07,-44.28zm-127.78 63.99c6.91,0.89 10.72,-2.69 16.65,-4.79 20.7,-7.33 41.6,-3.03 58.08,9.98 1.55,1.23 1.18,1.08 2.6,2.52 30.84,31.22 25.11,87.53 0.44,112.17 -12.95,12.94 -39.13,23.73 -64.18,14.37 -6.16,-2.3 -11.67,-3.2 -12.29,4.61 -1.42,17.83 6.32,45.5 -16.34,47.71 -6.8,0.66 -12.8,-2.69 -15.43,-6.04 -3.52,-4.46 -4.66,-9.5 -4.63,-16.88 0.16,-47.41 0.93,-101.11 -0.54,-147.57 -0.66,-20.95 -3.56,-21.45 19.84,-21.46 10.39,0 10.37,-1.95 15.8,5.38zm297.22 -7.41c30.28,-5.13 50.85,13.07 57.58,35.68 4.24,14.27 3.28,28.78 3.28,44.06 0,11.19 1.36,37.61 -0.35,47.05 -2.2,12.13 -16.41,20.4 -28.83,12.94 -10.18,-6.11 -7.48,-25.84 -7.48,-40.26 0,-13.39 1.2,-34.17 -0.67,-46.59 -2.04,-13.54 -10.09,-23.23 -26.05,-20.62 -12.04,1.97 -20.76,12.64 -21.35,26.27 -0.65,15.3 -0.03,32.05 -0.03,47.51 0,16.08 1.67,30.04 -12.13,35.18 -7.07,2.63 -14.99,-0.32 -19.13,-3.77 -4.9,-4.08 -5.41,-9.64 -5.4,-18.26 0.04,-31.2 0.77,-63.47 -0.23,-94.55 -0.81,-25.45 -3.58,-22.73 23.2,-22.64 8.87,0.03 8.26,5.85 19.33,3.59 4.89,-1 5.78,-3.47 18.26,-5.59zm-106.61 -40.86c23.39,-5.45 30.9,29.58 8.65,35.45 -23.62,6.23 -33.32,-29.7 -8.65,-35.45zm-304.83 114.76c0.81,20.47 4.33,41.24 9.22,59.98 2.45,9.42 5.61,18.16 7.22,27.77 1.68,9.97 3.2,20.26 3.81,30.56 1.5,25.57 -2.48,37.64 -9.82,59.59 -7.47,22.32 -5.59,38.19 6.46,54.85 8.41,11.63 26.52,22.86 48.69,20.92 16.31,-1.42 20,-8.81 58.31,-11.24 43.03,-2.73 78.61,13.42 119.55,17.86 82.67,8.98 159.41,-20.44 217.08,-75.7 8.23,-7.89 17.36,-18.49 24.5,-27.36 32.16,-39.95 53.49,-95.86 56.74,-150.63 9.4,-158.15 -116.13,-285.26 -268.02,-287.11 -86.21,-1.05 -156.94,39.95 -196.31,81.28 -23.12,24.27 -41.87,50.39 -55.73,83.06 -14.52,34.24 -23.36,74.07 -21.7,116.17z"/>
  <path class="fil0" d="M169.89 246.29c-9.05,2.14 -16.01,8.88 -19.55,15.64 -5.47,10.46 -7.69,46.58 4.84,58.27 17.5,16.33 55.44,8.8 51.38,-39.72 -1.64,-19.56 -14.33,-39.47 -36.67,-34.19z"/>
 </g>
</svg>
