<?xml version="1.0" encoding="UTF-8"?>
<!DOCTYPE svg PUBLIC "-//W3C//DTD SVG 1.1//EN" "http://www.w3.org/Graphics/SVG/1.1/DTD/svg11.dtd">
<!-- Creator: CorelDRAW -->
<svg xmlns="http://www.w3.org/2000/svg" xml:space="preserve" width="128px" height="128px" version="1.1" style="shape-rendering:geometricPrecision; text-rendering:geometricPrecision; image-rendering:optimizeQuality; fill-rule:evenodd; clip-rule:evenodd"
viewBox="0 0 128 128"
 xmlns:xlink="http://www.w3.org/1999/xlink"
 xmlns:xodm="http://www.corel.com/coreldraw/odm/2003">
 <defs>
  <style type="text/css">
   <![CDATA[
    .fil0 {fill:white}
   ]]>
  </style>
 </defs>
 <g id="Capa_x0020_1">
  <metadata id="CorelCorpID_0Corel-Layer"/>
  <path class="fil0" d="M31.57 103.68c0.01,1.71 -3.65,8.59 -4.72,10.31 -0.92,1.49 -5.77,8.59 -7.89,6.26 -2.09,-2.29 2.3,-8.49 3.92,-10.22 0.73,-0.77 1,-1.24 1.87,-1.94 1.4,-1.13 5.13,-4.33 6.82,-4.41zm44.86 -26.65c-0.08,-1.77 2.03,-9.36 2.73,-11.36 0.59,-1.69 1.24,-3.33 2.38,-4.7 1.07,-1.29 2.87,-2.86 3.95,-0.56 1.42,2.99 -0.4,8.68 -1.47,11.7 -0.67,1.93 -1.25,2.99 -2.63,4.45 -1.32,1.41 -3.4,1.73 -4.96,0.47zm-13.68 -15.51c2.65,-0.51 1.63,3.02 1.29,4.38 -0.46,1.8 -1.02,3.59 -1.59,5.37 -0.6,1.85 -2.61,9.05 -5.37,8.11 -4.76,-1.63 -1.04,-16.57 5.67,-17.86zm-1.26 20.46l0.22 -0.23 0.07 0.28c0.26,1.7 1.51,3.02 3.28,3.03 2.23,0.03 3.83,-1.49 4.58,-1.71 0.05,0.75 -0.82,5.16 -1.15,5.88 -0.95,0.5 -11.61,1.84 -13.6,2.15 -2.23,0.35 -4.5,0.73 -6.72,1.15 -2.05,0.39 -4.59,1.02 -6.59,1.27 0.23,-1.56 3.79,-13.65 4.54,-16.29 1.54,-5.43 3.11,-10.86 4.57,-16.29 0.32,-1.21 1.13,-3.36 -0.56,-3.77 -1.32,-0.33 -2.93,0.31 -3.95,1.09 -2.38,1.81 -2.73,4.01 -3.59,6.77 -1.18,3.79 -3.77,11.76 -6.41,14.46 -0.78,0.8 -2.42,2.09 -3.56,1.24 -2.05,-1.51 1.24,-9.95 1.94,-12.18 0.82,-2.57 1.99,-6.28 -1.68,-7.1 -1.98,-0.44 -2.76,0 -2.81,2.05 -0.05,1.84 -0.1,2.65 -0.78,4.37 -1.65,4.21 -4.62,12.47 -3.65,16.82 0.67,2.96 3.34,4.5 6.25,3.63 1.94,-0.58 4.78,-2.83 5.84,-4.51l-2.32 7.11c-1.57,4.87 -0.62,4.05 -4.15,5.43 -4.32,1.68 -8.06,4.63 -11.39,7.76 -3.22,3.03 -6.11,7.92 -7,12.27 -1.38,6.75 2.7,11.12 8.24,10.1 2.52,-0.47 4.46,-1.71 6.24,-3.48 5.57,-5.51 8.03,-10.64 10.58,-18.15 1.48,-4.36 0.51,-3.51 5.13,-4.58 3.46,-0.81 21.89,-4.66 24.21,-4.53 0,1.04 -0.28,2.21 0.3,3.17 0.54,0.88 1.56,1.14 2.51,0.7 1.94,-0.88 1.9,-3.02 2.65,-4.68 2.68,-0.5 5.61,-0.75 8.34,-1.13 2.73,-0.38 5.48,-0.77 8.22,-1.09 3.81,-0.46 8.77,-0.77 12.47,-1.57 1.22,-0.27 2.36,-0.54 2.64,-1.95 0.24,-1.24 -0.3,-2.67 -1.41,-3.26 -2.49,-1.33 -17.46,0.86 -21,1.33 -2.73,0.36 -5.58,0.84 -8.3,1.1 0.11,-1.2 0.8,-7.02 1.23,-7.72 0.86,0.57 1.32,1.3 2.45,1.77 8.28,3.49 12.07,-8 13.34,-13.98 0.76,-3.56 1.52,-11.09 -0.93,-14.03 -1.53,-1.85 -3.81,-2.03 -5.95,-1.13 -2.21,0.93 -3.43,3.45 -4.05,4.02 -0.12,-1.82 1.16,-2.34 -1.37,-3.07 -1.47,-0.43 -2.8,-0.68 -3.31,1.08 -0.7,2.38 -2.71,13.49 -3.22,16.47 -0.18,1.09 -0.48,3.14 -0.91,4.07 -0.42,0.92 -1.98,1.9 -3.02,1.82 -1.49,-1.78 1.31,-12.04 1.89,-14.62 0.35,-1.56 1.75,-5.97 0.72,-7.13 -0.68,-0.77 -2.31,-1.18 -3.36,-0.9 -1.56,0.41 -1,1.78 -1.73,2.4 -1.19,-0.71 -0.94,-1.09 -2.72,-1.43 -1.18,-0.22 -2.43,-0.11 -3.55,0.35 -1.41,0.58 -3.44,2.56 -4.33,3.8 -2.41,3.34 -4.05,7.27 -4.95,11.31 -3.98,17.88 8.64,17.75 11.57,10.26z"/>
  <path class="fil0" d="M66.74 1c-12.82,1.38 -21.61,13.45 -18.93,26.1 0.6,2.87 1.81,5.54 3.48,7.94 1.3,1.86 1.95,1.5 1.78,3.91 -0.14,1.8 -0.21,3.67 -0.3,5.47 -0.24,4.69 0.48,3.74 5.25,0.38 4.7,-3.31 2.02,-1.54 8.25,-0.73 12.86,1.65 24.24,-8.29 24.43,-21.22 0.19,-12.95 -11.07,-23.25 -23.96,-21.85zm-3.7 13.16c-4.44,0.95 -5.84,6.12 -2.63,9.27 1.16,1.14 3.84,1.7 5.4,2.21 0.85,0.28 1.92,0.59 2.42,1.39 1.78,2.86 -2.95,5.6 -6.09,2.94 -0.79,-0.67 -1.04,-1.6 -1.19,-2.59 -0.2,-1.26 -1.5,-1.57 -2.41,-0.96 -1.32,0.91 0,8 6.92,7.63 5.55,-0.29 7.02,-5.66 5.3,-8.76 -0.99,-1.78 -2.71,-2.46 -4.6,-3.01 -2.46,-0.72 -4.74,-0.94 -4.6,-3.09 0.16,-2.56 5.81,-3.65 6.49,0.67 0.21,1.34 1.44,1.79 2.46,1.09 1.53,-1.07 -0.57,-8.26 -7.47,-6.79zm18.68 0.9c-0.97,0.3 -2.43,3.43 -2.95,4.44 -0.82,1.58 -1.75,3.28 -2.65,4.83 -0.36,0.61 -3.77,6.72 -3.83,7.19 -0.14,1.15 0.92,2.02 2.02,1.63 0.95,-0.33 4.57,-7.61 5.54,-9.29 0.91,-1.54 1.72,-3.19 2.6,-4.75 0.29,-0.52 1.17,-1.93 1.22,-2.45 0.11,-1.1 -0.9,-1.94 -1.95,-1.6z"/>
  <path class="fil0" d="M99.95 63.63l-0.43 0.14 0.18 -0.4c0.24,-1.69 4.12,-9.78 6.23,-7.26 1.15,1.36 -0.4,3.91 -1.38,4.92 -0.9,0.92 -3.23,2.48 -4.6,2.6zm4.84 -13.3c-4.36,0.6 -7.15,4.84 -9.13,8.36 -2.27,4.04 -3.69,8.97 -3.81,13.61 -0.13,4.87 1.33,10.6 7.48,9.73 2.03,-0.29 4.4,-1.39 6.07,-2.57 1.07,-0.76 3.85,-3.22 4.57,-4.23 0.91,-1.3 0.6,-2.08 0.09,-3.44 -1.18,-3.13 -2.38,-1.42 -4.39,0.84 -0.54,0.6 -1.82,1.52 -2.52,1.95 -2.07,1.25 -4.89,1.97 -5.41,-1.24 -0.19,-1.17 0.11,-2.66 0.53,-3.77 0.3,-0.76 0.78,-0.61 1.49,-0.73 8.24,-1.45 13.58,-11.36 11.1,-15.96 -1.15,-2.13 -3.8,-2.86 -6.07,-2.55z"/>
 </g>
</svg>
